<svg width="600" height="350" viewBox="0 0 600 350" fill="none" xmlns="http://www.w3.org/2000/svg">
<rect width="600" height="350" rx="20" fill="#C4C4C4"/>
<path d="M290.132 191.592C290.132 186.408 291.284 182.136 293.588 178.776C295.988 175.32 299.444 171.576 303.956 167.544C307.412 164.472 309.956 161.832 311.588 159.624C313.316 157.32 314.18 154.728 314.18 151.848C314.18 147.816 312.548 144.552 309.284 142.056C306.02 139.56 301.652 138.312 296.18 138.312C285.812 138.312 277.988 142.008 272.708 149.4L258.74 140.328C262.868 134.664 268.196 130.344 274.724 127.368C281.252 124.296 288.932 122.76 297.764 122.76C308.516 122.76 317.06 125.112 323.396 129.816C329.828 134.424 333.044 140.808 333.044 148.968C333.044 152.904 332.372 156.36 331.028 159.336C329.78 162.312 328.244 164.856 326.42 166.968C324.596 168.984 322.196 171.336 319.22 174.024C315.572 177.288 312.836 180.168 311.012 182.664C309.284 185.16 308.42 188.136 308.42 191.592H290.132ZM299.348 226.008C295.988 226.008 293.204 224.952 290.996 222.84C288.884 220.632 287.828 217.944 287.828 214.776C287.828 211.608 288.884 208.968 290.996 206.856C293.204 204.744 295.988 203.688 299.348 203.688C302.612 203.688 305.3 204.744 307.412 206.856C309.62 208.968 310.724 211.608 310.724 214.776C310.724 217.944 309.62 220.632 307.412 222.84C305.3 224.952 302.612 226.008 299.348 226.008Z" fill="black"/>
</svg>
