<svg width="1000" height="563" viewBox="0 0 1000 563" fill="none" xmlns="http://www.w3.org/2000/svg">
<rect width="1000" height="562.5" rx="50" fill="#C4C4C4"/>
<path d="M464.551 311.449C474.512 321.215 486.328 326.098 500 326.098C513.672 326.098 525.391 321.215 535.156 311.449C545.117 301.488 550.098 289.672 550.098 276C550.098 262.328 545.117 250.609 535.156 240.844C525.391 230.883 513.672 225.902 500 225.902C486.328 225.902 474.512 230.883 464.551 240.844C454.785 250.609 449.902 262.328 449.902 276C449.902 289.672 454.785 301.488 464.551 311.449ZM455.762 232.055C468.066 219.75 482.812 213.598 500 213.598C517.188 213.598 531.836 219.75 543.945 232.055C556.25 244.164 562.402 258.812 562.402 276C562.402 293.188 556.25 307.934 543.945 320.238C531.836 332.348 517.188 338.402 500 338.402C482.812 338.402 468.066 332.348 455.762 320.238C443.652 307.934 437.598 293.188 437.598 276C437.598 258.812 443.652 244.164 455.762 232.055ZM487.402 304.125V247.875L524.902 276L487.402 304.125Z" fill="#1B1D1D" fill-opacity="0.5"/>
</svg>
