<svg width="32" height="38" viewBox="0 0 32 38" fill="none" xmlns="http://www.w3.org/2000/svg">
<g filter="url(#filter0_d)">
<path d="M12.2185 7.53113C12.7722 7.53113 13.2224 7.08092 13.2224 6.52725C13.2224 5.97382 12.7722 5.52338 12.2185 5.52338C11.6651 5.52338 11.2147 5.97382 11.2147 6.52725C11.2147 7.08092 11.6651 7.53113 12.2185 7.53113Z" fill="#1B1D1D"/>
<path d="M19.8124 4.76944V0H7.51157C5.9998 0 4.74988 1.22154 4.74988 2.76169V27.2383C4.74988 28.7503 5.97188 30 7.51157 30H24.4568C25.9686 30 27.2187 28.7785 27.2187 27.2383V7.40616H22.4491C20.9952 7.40616 19.8124 6.22353 19.8124 4.76944V4.76944ZM12.2185 24.3517H9.39435C8.90889 24.3517 8.51544 23.958 8.51544 23.4727C8.51544 22.9873 8.90889 22.5938 9.39435 22.5938H12.2185C12.704 22.5938 13.0974 22.9873 13.0974 23.4727C13.0974 23.958 12.704 24.3517 12.2185 24.3517ZM12.2185 20.5859H9.39435C8.90889 20.5859 8.51544 20.1924 8.51544 19.707C8.51544 19.2217 8.90889 18.828 9.39435 18.828H12.2185C12.704 18.828 13.0974 19.2217 13.0974 19.707C13.0974 20.1924 12.704 20.5859 12.2185 20.5859ZM12.2185 16.8203H9.39435C8.90889 16.8203 8.51544 16.4268 8.51544 15.9414C8.51544 15.4559 8.90889 15.0625 9.39435 15.0625H12.2185C12.704 15.0625 13.0974 15.4559 13.0974 15.9414C13.0974 16.4268 12.704 16.8203 12.2185 16.8203ZM9.39435 13.0547C8.90889 13.0547 8.51544 12.6613 8.51544 12.1758V11.2335C8.51544 10.001 9.12129 8.90808 10.0503 8.23471C9.67931 7.76436 9.45683 7.17155 9.45683 6.52725C9.45683 5.0045 10.6958 3.76556 12.2185 3.76556C13.7413 3.76556 14.9802 5.0045 14.9802 6.52725C14.9802 7.17155 14.758 7.76459 14.3867 8.23494C15.3157 8.90808 15.9216 10.001 15.9216 11.2333V12.1758C15.9216 12.6613 15.5282 13.0547 15.0427 13.0547H9.39435ZM22.574 24.3517H15.9843C15.4989 24.3517 15.1054 23.958 15.1054 23.4727C15.1054 22.9873 15.4989 22.5938 15.9843 22.5938H22.574C23.0595 22.5938 23.453 22.9873 23.453 23.4727C23.453 23.958 23.0595 24.3517 22.574 24.3517ZM22.574 20.5859H15.9843C15.4989 20.5859 15.1054 20.1924 15.1054 19.707C15.1054 19.2217 15.4989 18.828 15.9843 18.828H22.574C23.0595 18.828 23.453 19.2217 23.453 19.707C23.453 20.1924 23.0595 20.5859 22.574 20.5859ZM23.453 15.9414C23.453 16.4268 23.0595 16.8203 22.574 16.8203H15.9843C15.4989 16.8203 15.1054 16.4268 15.1054 15.9414C15.1054 15.4559 15.4989 15.0625 15.9843 15.0625H22.574C23.0595 15.0625 23.453 15.4559 23.453 15.9414Z" fill="#1B1D1D"/>
<path d="M12.2197 9.28894C11.1455 9.28894 10.2733 10.1612 10.2733 11.2335V11.2969H14.164V11.2335C14.1638 10.1612 13.2917 9.28894 12.2197 9.28894Z" fill="#1B1D1D"/>
<path d="M26.9613 4.96445L22.2541 0.257492C22.0893 0.0924683 21.8659 0 21.6327 0H21.5702V4.76944C21.5702 5.2549 21.9636 5.64835 22.4491 5.64835H27.2185V5.58586C27.2185 5.35286 27.1261 5.12924 26.9613 4.96445Z" fill="#1B1D1D"/>
</g>
<defs>
<filter id="filter0_d" x="-3.00012" y="0" width="38" height="38" filterUnits="userSpaceOnUse" color-interpolation-filters="sRGB">
<feFlood flood-opacity="0" result="BackgroundImageFix"/>
<feColorMatrix in="SourceAlpha" type="matrix" values="0 0 0 0 0 0 0 0 0 0 0 0 0 0 0 0 0 0 127 0"/>
<feOffset dy="4"/>
<feGaussianBlur stdDeviation="2"/>
<feColorMatrix type="matrix" values="0 0 0 0 0 0 0 0 0 0 0 0 0 0 0 0 0 0 0.25 0"/>
<feBlend mode="normal" in2="BackgroundImageFix" result="effect1_dropShadow"/>
<feBlend mode="normal" in="SourceGraphic" in2="effect1_dropShadow" result="shape"/>
</filter>
</defs>
</svg>
