<svg width="130" height="112" viewBox="0 0 130 112" fill="none" xmlns="http://www.w3.org/2000/svg">
<g filter="url(#filter0_d)">
<path d="M100.078 31.0781V21L60 46.0781L19.9219 21V31.0781L60 55.9219L100.078 31.0781ZM100.078 10.9219C102.734 10.9219 105 11.9375 106.875 13.9688C108.906 16 109.922 18.3438 109.922 21V81C109.922 83.6562 108.906 86 106.875 88.0312C105 90.0625 102.734 91.0781 100.078 91.0781H19.9219C17.2656 91.0781 14.9219 90.0625 12.8906 88.0312C11.0156 86 10.0781 83.6562 10.0781 81V21C10.0781 18.3438 11.0156 16 12.8906 13.9688C14.9219 11.9375 17.2656 10.9219 19.9219 10.9219H100.078Z" fill="#1B1D1D"/>
</g>
<defs>
<filter id="filter0_d" x="0.078125" y="0.921875" width="129.844" height="110.156" filterUnits="userSpaceOnUse" color-interpolation-filters="sRGB">
<feFlood flood-opacity="0" result="BackgroundImageFix"/>
<feColorMatrix in="SourceAlpha" type="matrix" values="0 0 0 0 0 0 0 0 0 0 0 0 0 0 0 0 0 0 127 0"/>
<feOffset dx="5" dy="5"/>
<feGaussianBlur stdDeviation="7.5"/>
<feColorMatrix type="matrix" values="0 0 0 0 0 0 0 0 0 0 0 0 0 0 0 0 0 0 0.25 0"/>
<feBlend mode="normal" in2="BackgroundImageFix" result="effect1_dropShadow"/>
<feBlend mode="normal" in="SourceGraphic" in2="effect1_dropShadow" result="shape"/>
</filter>
</defs>
</svg>
