<svg width="30" height="30" viewBox="0 0 30 30" fill="none" xmlns="http://www.w3.org/2000/svg">
<path d="M9.1712 19.3122L4.85805 14.9989L9.1712 10.6857C9.95725 9.89961 9.95725 8.62631 9.1712 7.84026C8.38618 7.05426 7.11185 7.05426 6.32591 7.84026L0.58948 13.5761C0.212186 13.9535 0 14.4653 0 14.9989C0 15.5325 0.212186 16.0443 0.58948 16.4216L6.32591 22.1575C6.71888 22.5505 7.2337 22.747 7.74859 22.747C8.26341 22.747 8.77872 22.5505 9.1712 22.1575C9.95725 21.3714 9.95725 20.0981 9.1712 19.3122Z" fill="#1B1D1D"/>
<path d="M29.4104 13.5761L23.674 7.84026C22.888 7.05426 21.6137 7.05426 20.8286 7.84026C20.0426 8.62625 20.0426 9.89955 20.8286 10.6857L25.1418 14.9989L20.8286 19.3122C20.0426 20.0981 20.0426 21.3714 20.8286 22.1575C21.2212 22.5505 21.7365 22.747 22.2514 22.747C22.7662 22.747 23.281 22.5505 23.674 22.1575L29.4104 16.4216C29.7876 16.0443 30 15.5325 30 14.9989C30 14.4653 29.7876 13.9535 29.4104 13.5761Z" fill="#1B1D1D"/>
<path d="M19.5849 3.5624C18.5597 3.14677 17.3811 3.63523 16.9611 4.66379L9.13297 23.811C8.71248 24.8397 9.20519 26.0147 10.2339 26.4353C10.4829 26.5365 10.7409 26.5856 10.9948 26.5856C11.7877 26.5856 12.5393 26.1131 12.8577 25.334L20.6858 6.18687C21.1063 5.15808 20.6136 3.98301 19.5849 3.5624Z" fill="#1B1D1D"/>
</svg>
