<?xml version="1.0" standalone="no"?>
<!DOCTYPE svg PUBLIC "-//W3C//DTD SVG 20010904//EN"
 "http://www.w3.org/TR/2001/REC-SVG-20010904/DTD/svg10.dtd">
<svg version="1.0" xmlns="http://www.w3.org/2000/svg"
 width="44.000000pt" height="44.000000pt" viewBox="0 0 44.000000 44.000000"
 preserveAspectRatio="xMidYMid meet">

<g transform="translate(0.000000,44.000000) scale(0.100000,-0.100000)"
fill="#000000" stroke="none">
<path d="M16 424 c-24 -23 -24 -385 0 -408 23 -24 385 -24 408 0 24 23 24 385
0 408 -23 24 -385 24 -408 0z m204 -68 c0 -7 -7 -33 -15 -56 -8 -24 -14 -44
-13 -45 2 -1 20 -5 40 -9 l36 -7 16 53 c9 29 20 60 25 68 19 29 20 3 2 -58
-18 -57 -18 -62 -3 -62 14 0 12 -4 -6 -18 -18 -14 -24 -31 -29 -85 -4 -47 -10
-67 -20 -67 -27 0 -26 30 3 133 5 14 -1 17 -35 17 l-39 0 -22 -68 c-23 -69
-35 -90 -46 -80 -5 6 15 87 33 134 4 12 3 15 -5 10 -7 -4 -12 -3 -12 3 0 5 6
14 13 18 14 9 47 89 47 113 -1 23 -40 -28 -40 -51 0 -10 -7 -19 -15 -19 -23 0
-18 34 10 64 26 28 75 36 75 12z"/>
</g>
</svg>
