<svg width="39" height="36" viewBox="0 0 39 36" fill="none" xmlns="http://www.w3.org/2000/svg">
<g filter="url(#filter0_d)">
<path d="M11.278 24.957V15.9922L16.1921 27.8125H14.1335C13.3809 27.8125 12.7168 27.5247 12.1413 26.9492C11.5658 26.3737 11.278 25.7096 11.278 24.957ZM13.1374 9.01953C13.403 9.28516 13.735 9.41797 14.1335 9.41797C14.5319 9.41797 14.8639 9.28516 15.1296 9.01953C15.3952 8.70964 15.528 8.35547 15.528 7.95703C15.528 7.55859 15.3952 7.22656 15.1296 6.96094C14.8639 6.69531 14.5319 6.5625 14.1335 6.5625C13.735 6.5625 13.403 6.69531 13.1374 6.96094C12.8717 7.22656 12.7389 7.55859 12.7389 7.95703C12.7389 8.35547 12.8717 8.70964 13.1374 9.01953ZM34.1882 19.5781C34.321 19.8438 34.3874 20.1979 34.3874 20.6406C34.3874 21.1719 34.2103 21.7031 33.8561 22.2344C33.5462 22.7656 33.1478 23.1198 32.6608 23.2969L22.235 27.6133C21.9694 27.7461 21.6152 27.8125 21.1725 27.8125C20.6413 27.8125 20.11 27.6576 19.5788 27.3477C19.0918 26.9935 18.7376 26.5729 18.5163 26.0859L11.4772 9.08594C11.3444 8.82031 11.278 8.46615 11.278 8.02344C11.278 7.49219 11.4329 6.98307 11.7428 6.49609C12.097 6.00911 12.5176 5.65495 13.0046 5.43359L23.4967 1.11719C23.8952 0.984375 24.2715 0.917969 24.6257 0.917969C25.1126 0.917969 25.5996 1.09505 26.0866 1.44922C26.5736 1.75911 26.9277 2.15755 27.1491 2.64453L34.1882 19.5781ZM6.56315 24.8242C5.85482 24.5143 5.3457 24.0052 5.03581 23.2969C4.72591 22.5885 4.72591 21.8802 5.03581 21.1719L8.48893 12.8711V25.6211L6.56315 24.8242Z" fill="#1B1D1D"/>
</g>
<defs>
<filter id="filter0_d" x="0.803387" y="0.917969" width="37.584" height="34.8945" filterUnits="userSpaceOnUse" color-interpolation-filters="sRGB">
<feFlood flood-opacity="0" result="BackgroundImageFix"/>
<feColorMatrix in="SourceAlpha" type="matrix" values="0 0 0 0 0 0 0 0 0 0 0 0 0 0 0 0 0 0 127 0"/>
<feOffset dy="4"/>
<feGaussianBlur stdDeviation="2"/>
<feColorMatrix type="matrix" values="0 0 0 0 0 0 0 0 0 0 0 0 0 0 0 0 0 0 0.25 0"/>
<feBlend mode="normal" in2="BackgroundImageFix" result="effect1_dropShadow"/>
<feBlend mode="normal" in="SourceGraphic" in2="effect1_dropShadow" result="shape"/>
</filter>
</defs>
</svg>
