<svg width="38" height="38" viewBox="0 0 38 38" fill="none" xmlns="http://www.w3.org/2000/svg">
<g filter="url(#filter0_d)">
<path d="M26.1576 29.1445V26.3555H30.4076V22.1055H33.1966V27.0195C33.1966 27.5951 32.9753 28.1042 32.5326 28.5469C32.1341 28.9453 31.6472 29.1445 31.0716 29.1445H26.1576ZM11.9466 29.1445H7.03259C6.45706 29.1445 5.94795 28.9453 5.50524 28.5469C5.1068 28.1042 4.90759 27.5951 4.90759 27.0195V22.1055H7.69665V26.3555H11.9466V29.1445ZM26.1576 0.855469H31.0716C31.6472 0.855469 32.1341 1.07682 32.5326 1.51953C32.9753 1.91797 33.1966 2.40495 33.1966 2.98047V7.89453H30.4076V3.64453H26.1576V0.855469ZM11.9466 0.855469V3.64453H7.69665V7.89453H4.90759V2.98047C4.90759 2.40495 5.1068 1.91797 5.50524 1.51953C5.94795 1.07682 6.45706 0.855469 7.03259 0.855469H11.9466ZM20.4466 22.4375L26.1576 19.1836V12.6758L20.4466 15.9297V22.4375ZM19.0521 13.4727L24.6966 10.2188L19.0521 6.89844L13.4076 10.2188L19.0521 13.4727ZM11.9466 19.1836L17.6576 22.4375V15.9297L11.9466 12.6758V19.1836ZM27.8841 8.75781C28.5925 9.20052 28.9466 9.82031 28.9466 10.6172V19.582C28.9466 20.3789 28.5925 20.9987 27.8841 21.4414L20.1146 25.957C19.4063 26.3997 18.6979 26.3997 17.9896 25.957L10.2201 21.4414C9.51175 20.9987 9.15759 20.3789 9.15759 19.582V10.6172C9.15759 9.82031 9.51175 9.20052 10.2201 8.75781L17.9896 4.24219C18.3438 4.0651 18.6979 3.97656 19.0521 3.97656C19.4063 3.97656 19.7604 4.0651 20.1146 4.24219L27.8841 8.75781Z" fill="#1B1D1D"/>
</g>
<defs>
<filter id="filter0_d" x="0.907593" y="0.855469" width="36.2891" height="36.2891" filterUnits="userSpaceOnUse" color-interpolation-filters="sRGB">
<feFlood flood-opacity="0" result="BackgroundImageFix"/>
<feColorMatrix in="SourceAlpha" type="matrix" values="0 0 0 0 0 0 0 0 0 0 0 0 0 0 0 0 0 0 127 0"/>
<feOffset dy="4"/>
<feGaussianBlur stdDeviation="2"/>
<feColorMatrix type="matrix" values="0 0 0 0 0 0 0 0 0 0 0 0 0 0 0 0 0 0 0.25 0"/>
<feBlend mode="normal" in2="BackgroundImageFix" result="effect1_dropShadow"/>
<feBlend mode="normal" in="SourceGraphic" in2="effect1_dropShadow" result="shape"/>
</filter>
</defs>
</svg>
