<svg width="22" height="45" viewBox="0 0 22 45" fill="none" xmlns="http://www.w3.org/2000/svg">
<line y1="-0.5" x2="15.6468" y2="-0.5" transform="matrix(0.711169 0.703021 -0.711169 0.703021 0 12)" stroke="#1B1D1D"/>
<line y1="-0.5" x2="15.1402" y2="-0.5" transform="matrix(0.734964 -0.678106 0.686511 0.727119 10.8725 23)" stroke="#1B1D1D"/>
<line y1="-0.5" x2="15.6468" y2="-0.5" transform="matrix(0.711169 0.703021 -0.711169 0.703021 0 34)" stroke="#1B1D1D"/>
<line y1="-0.5" x2="15.1402" y2="-0.5" transform="matrix(0.734964 -0.678106 0.686511 0.727119 10.8725 45)" stroke="#1B1D1D"/>
<line y1="-0.5" x2="15.6468" y2="-0.5" transform="matrix(0.711169 0.703021 -0.711169 0.703021 0 23)" stroke="#1B1D1D"/>
<line y1="-0.5" x2="15.1402" y2="-0.5" transform="matrix(0.734964 -0.678106 0.686511 0.727119 10.8725 34)" stroke="#1B1D1D"/>
<line y1="-0.5" x2="15.6468" y2="-0.5" transform="matrix(0.711169 0.703021 -0.711169 0.703021 0 1)" stroke="#1B1D1D"/>
<line y1="-0.5" x2="15.1402" y2="-0.5" transform="matrix(0.734964 -0.678106 0.686511 0.727119 10.8725 12)" stroke="#1B1D1D"/>
</svg>
