<svg width="42" height="42" viewBox="0 0 42 42" fill="none" xmlns="http://www.w3.org/2000/svg">
<path d="M29.9086 25.1992H36.9398C37.3304 23.3763 37.5258 21.9766 37.5258 21C37.5258 20.0234 37.3304 18.6237 36.9398 16.8008H29.9086C30.1039 18.168 30.2015 19.5677 30.2015 21C30.2015 22.4323 30.1039 23.832 29.9086 25.1992ZM26.1976 36.7227C27.8252 36.2018 29.5179 35.2253 31.2758 33.793C33.0336 32.2956 34.3682 30.7982 35.2797 29.3008H29.1273C28.4763 31.9049 27.4997 34.3789 26.1976 36.7227ZM25.7094 25.1992C25.9047 23.832 26.0023 22.4323 26.0023 21C26.0023 19.5677 25.9047 18.168 25.7094 16.8008H15.9437C15.7484 18.168 15.6508 19.5677 15.6508 21C15.6508 22.4323 15.7484 23.832 15.9437 25.1992H25.7094ZM20.8265 37.6016C22.6495 34.9323 23.9841 32.1654 24.8304 29.3008H16.8226C17.669 32.1654 19.0036 34.9323 20.8265 37.6016ZM12.5258 12.6992C13.307 9.89974 14.2836 7.42578 15.4554 5.27734C13.8278 5.79818 12.1026 6.80729 10.2797 8.30469C8.52185 9.73698 7.21977 11.2018 6.37341 12.6992H12.5258ZM6.37341 29.3008C7.21977 30.7982 8.52185 32.2956 10.2797 33.793C12.1026 35.2253 13.8278 36.2018 15.4554 36.7227C14.1534 34.3789 13.1768 31.9049 12.5258 29.3008H6.37341ZM4.71326 25.1992H11.7445C11.5492 23.832 11.4515 22.4323 11.4515 21C11.4515 19.5677 11.5492 18.168 11.7445 16.8008H4.71326C4.32263 18.6237 4.12732 20.0234 4.12732 21C4.12732 21.9766 4.32263 23.3763 4.71326 25.1992ZM20.8265 4.39844C19.0036 7.06771 17.669 9.83464 16.8226 12.6992H24.8304C23.9841 9.83464 22.6495 7.06771 20.8265 4.39844ZM35.2797 12.6992C34.3682 11.2018 33.0336 9.73698 31.2758 8.30469C29.5179 6.80729 27.8252 5.79818 26.1976 5.27734C27.3695 7.42578 28.3461 9.89974 29.1273 12.6992H35.2797ZM6.08044 6.35156C10.182 2.25 15.0974 0.199219 20.8265 0.199219C26.5557 0.199219 31.4385 2.25 35.475 6.35156C39.5765 10.388 41.6273 15.2708 41.6273 21C41.6273 26.7292 39.5765 31.6445 35.475 35.7461C31.4385 39.7826 26.5557 41.8008 20.8265 41.8008C15.0974 41.8008 10.182 39.7826 6.08044 35.7461C2.04399 31.6445 0.0257568 26.7292 0.0257568 21C0.0257568 15.2708 2.04399 10.388 6.08044 6.35156Z" fill="#1B1D1D"/>
</svg>
