<svg width="34" height="34" viewBox="0 0 34 34" fill="none" xmlns="http://www.w3.org/2000/svg">
<g filter="url(#filter0_d)">
<path d="M12.4007 20.8516C13.8851 21.6328 15.2913 22.0234 16.6195 22.0234C17.9476 22.0234 19.3343 21.6328 20.7796 20.8516C22.264 20.0703 23.3773 19.1133 24.1195 17.9805C24.0804 16.8867 23.2015 15.9688 21.4827 15.2266C19.764 14.4844 18.1429 14.1133 16.6195 14.1133C15.096 14.1133 13.4749 14.4844 11.7562 15.2266C10.0374 15.9297 9.15853 16.8477 9.11947 17.9805C9.86166 19.1133 10.9554 20.0703 12.4007 20.8516ZM19.2562 5.38281C18.514 4.64062 17.6351 4.26953 16.6195 4.26953C15.6038 4.26953 14.7249 4.64062 13.9827 5.38281C13.2406 6.125 12.8695 7.00391 12.8695 8.01953C12.8695 9.03516 13.2406 9.91406 13.9827 10.6562C14.7249 11.3984 15.6038 11.7695 16.6195 11.7695C17.6351 11.7695 18.514 11.3984 19.2562 10.6562C19.9984 9.91406 20.3695 9.03516 20.3695 8.01953C20.3695 7.00391 19.9984 6.125 19.2562 5.38281ZM7.77181 4.21094C10.2327 1.75 13.182 0.519531 16.6195 0.519531C20.057 0.519531 22.9867 1.75 25.4085 4.21094C27.8695 6.63281 29.0999 9.5625 29.0999 13C29.0999 16.4375 27.8695 19.3867 25.4085 21.8477C22.9867 24.2695 20.057 25.4805 16.6195 25.4805C13.182 25.4805 10.2327 24.2695 7.77181 21.8477C5.34994 19.3867 4.139 16.4375 4.139 13C4.139 9.5625 5.34994 6.63281 7.77181 4.21094Z" fill="#1B1D1D"/>
</g>
<defs>
<filter id="filter0_d" x="0.139008" y="0.519531" width="32.9609" height="32.9609" filterUnits="userSpaceOnUse" color-interpolation-filters="sRGB">
<feFlood flood-opacity="0" result="BackgroundImageFix"/>
<feColorMatrix in="SourceAlpha" type="matrix" values="0 0 0 0 0 0 0 0 0 0 0 0 0 0 0 0 0 0 127 0"/>
<feOffset dy="4"/>
<feGaussianBlur stdDeviation="2"/>
<feColorMatrix type="matrix" values="0 0 0 0 0 0 0 0 0 0 0 0 0 0 0 0 0 0 0.25 0"/>
<feBlend mode="normal" in2="BackgroundImageFix" result="effect1_dropShadow"/>
<feBlend mode="normal" in="SourceGraphic" in2="effect1_dropShadow" result="shape"/>
</filter>
</defs>
</svg>
